<svg width="42" height="39" viewBox="0 0 42 39" fill="none" xmlns="http://www.w3.org/2000/svg">
<path fill-rule="evenodd" clip-rule="evenodd" d="M40.6619 2.50246C41.443 3.2835 41.443 4.54983 40.6619 5.33088L21.4953 24.4975C20.7142 25.2786 19.4479 25.2786 18.6668 24.4975L12.9168 18.7475C12.1358 17.9665 12.1358 16.7002 12.9168 15.9191C13.6979 15.1381 14.9642 15.1381 15.7453 15.9191L20.0811 20.2549L37.8335 2.50245C38.6146 1.72141 39.8809 1.72141 40.6619 2.50246Z" fill="#1C1B1B"/>
<path fill-rule="evenodd" clip-rule="evenodd" d="M6.66439 4C6.17816 4 5.71184 4.19315 5.36803 4.53697C5.02421 4.88079 4.83105 5.3471 4.83105 5.83333V32.6667C4.83105 33.1529 5.02421 33.6192 5.36803 33.963C5.71184 34.3068 6.17816 34.5 6.66439 34.5H33.4977C33.9839 34.5 34.4503 34.3068 34.7941 33.963C35.1379 33.6192 35.3311 33.1529 35.3311 32.6667V19.25C35.3311 18.1454 36.2265 17.25 37.3311 17.25C38.4356 17.25 39.3311 18.1454 39.3311 19.25V32.6667C39.3311 34.2138 38.7165 35.6975 37.6225 36.7915C36.5285 37.8854 35.0448 38.5 33.4977 38.5H6.66439C5.11729 38.5 3.63356 37.8854 2.5396 36.7915C1.44564 35.6975 0.831055 34.2138 0.831055 32.6667V5.83333C0.831055 4.28624 1.44564 2.80251 2.5396 1.70854C3.63356 0.614581 5.11729 0 6.66439 0H27.7477C28.8523 0 29.7477 0.89543 29.7477 2C29.7477 3.10457 28.8523 4 27.7477 4H6.66439Z" fill="#1C1B1B"/>
</svg>
