<svg width="28" height="47" viewBox="0 0 28 47" fill="none" xmlns="http://www.w3.org/2000/svg">
<path fill-rule="evenodd" clip-rule="evenodd" d="M14.3311 0C15.4356 0 16.3311 0.89543 16.3311 2V44.1667C16.3311 45.2712 15.4356 46.1667 14.3311 46.1667C13.2265 46.1667 12.3311 45.2712 12.3311 44.1667V2C12.3311 0.89543 13.2265 0 14.3311 0Z" fill="#1C1B1B"/>
<path fill-rule="evenodd" clip-rule="evenodd" d="M3.38167 10.2173C5.0148 8.58415 7.22979 7.66666 9.53939 7.66666H23.9144C25.019 7.66666 25.9144 8.56209 25.9144 9.66666C25.9144 10.7712 25.019 11.6667 23.9144 11.6667H9.53939C8.29066 11.6667 7.09308 12.1627 6.21009 13.0457C5.32711 13.9287 4.83105 15.1263 4.83105 16.375C4.83105 17.6237 5.32711 18.8213 6.21009 19.7043C7.09308 20.5873 8.29066 21.0833 9.53939 21.0833H19.1227C21.4323 21.0833 23.6473 22.0008 25.2804 23.6339C26.9136 25.2671 27.8311 27.4821 27.8311 29.7917C27.8311 32.1013 26.9136 34.3163 25.2804 35.9494C23.6473 37.5825 21.4323 38.5 19.1227 38.5H2.83105C1.72649 38.5 0.831055 37.6046 0.831055 36.5C0.831055 35.3954 1.72649 34.5 2.83105 34.5H19.1227C20.3715 34.5 21.569 34.0039 22.452 33.121C23.335 32.238 23.8311 31.0404 23.8311 29.7917C23.8311 28.5429 23.335 27.3454 22.452 26.4624C21.569 25.5794 20.3714 25.0833 19.1227 25.0833H9.53939C7.22979 25.0833 5.0148 24.1658 3.38167 22.5327C1.74854 20.8996 0.831055 18.6846 0.831055 16.375C0.831055 14.0654 1.74854 11.8504 3.38167 10.2173Z" fill="#1C1B1B"/>
</svg>
