<svg width="42" height="41" viewBox="0 0 42 41" fill="none" xmlns="http://www.w3.org/2000/svg">
<path fill-rule="evenodd" clip-rule="evenodd" d="M20.8676 7.81146L24.3866 17.971H34.4609L26.6388 24.4696L29.1004 34.3017L20.8436 28.5852L12.5704 34.3017L15.0482 24.4696L7.21025 17.971H17.4811L20.8676 7.81146ZM18.7555 1.49859C19.418 -0.488913 22.2204 -0.501729 22.9055 1.4736L27.2343 13.971H39.4673C41.5188 13.971 42.4457 16.5375 40.8678 17.8484L31.13 25.9386L34.1476 37.9913C34.6386 39.9531 32.4375 41.4761 30.7748 40.326L20.8413 33.4487L10.8879 40.3263C9.22373 41.4763 7.02231 39.9504 7.51635 37.9883L10.5529 25.9386L0.797175 17.8498C-0.78304 16.5396 0.143619 13.971 2.19606 13.971H14.5981L18.7555 1.49859Z" fill="#1C1B1B"/>
</svg>
