<svg width="28" height="30" viewBox="0 0 28 30" fill="none" xmlns="http://www.w3.org/2000/svg">
<path fill-rule="evenodd" clip-rule="evenodd" d="M4.54358 27.5H23.0524C24.2407 27.5 25.1669 26.47 25.0412 25.2884L23.3922 9.78842C23.284 8.77149 22.4261 8 21.4034 8H6.5223C5.51565 8 4.66588 8.74819 4.53841 9.74674L2.55968 25.2467C2.40708 26.4421 3.33848 27.5 4.54358 27.5ZM4.54358 29.5H23.0524C25.429 29.5 27.2813 27.4401 27.0299 25.0769L25.381 9.57685C25.1646 7.54299 23.4488 6 21.4034 6H6.5223C4.509 6 2.80945 7.49638 2.55451 9.49347L0.575782 24.9935C0.270575 27.3843 2.13339 29.5 4.54358 29.5Z" fill="#1C1B1B"/>
<path d="M5.00048 23C5.00048 22.4477 5.4482 22 6.00048 22H22.0005C22.5528 22 23.0005 22.4477 23.0005 23C23.0005 23.5523 22.5528 24 22.0005 24H6.00048C5.4482 24 5.00048 23.5523 5.00048 23Z" fill="#1C1B1B"/>
<path fill-rule="evenodd" clip-rule="evenodd" d="M14.0005 2C11.2391 2 9.00048 4.23858 9.00048 7V12C9.00048 12.5523 8.55277 13 8.00048 13C7.4482 13 7.00048 12.5523 7.00048 12V7C7.00048 3.13401 10.1345 0 14.0005 0C17.8665 0 21.0005 3.13401 21.0005 7V12C21.0005 12.5523 20.5528 13 20.0005 13C19.4482 13 19.0005 12.5523 19.0005 12V7C19.0005 4.23858 16.7619 2 14.0005 2Z" fill="#1C1B1B"/>
</svg>
