<svg width="56" height="56" viewBox="0 0 56 56" fill="none" xmlns="http://www.w3.org/2000/svg">
<circle cx="28" cy="28" r="28" fill="#5181B8"/>
<path fill-rule="evenodd" clip-rule="evenodd" d="M43.2428 20.3543C43.4722 19.5736 43.2428 19 42.151 19H38.5408C37.6228 19 37.1996 19.4955 36.9701 20.0419C36.9701 20.0419 35.1342 24.6087 32.5334 27.5751C31.6919 28.4337 31.3094 28.7069 30.8504 28.7069C30.621 28.7069 30.2888 28.4337 30.2888 27.6531V20.3543C30.2888 19.4175 30.0224 19 29.2574 19H23.5842C23.0105 19 22.6655 19.4348 22.6655 19.8468C22.6655 20.7349 23.9659 20.9397 24.0999 23.4377V28.8631C24.0999 30.0526 23.8894 30.2683 23.4304 30.2683C22.2066 30.2683 19.2295 25.6812 17.4638 20.4323C17.1177 19.4121 16.7707 19 15.848 19H12.2378C11.2063 19 11 19.4955 11 20.0419C11 21.0178 12.2239 25.8577 16.6989 32.2589C19.6821 36.6303 23.8854 39 27.7101 39C30.005 39 30.2889 38.4737 30.2889 37.5671V34.2632C30.2889 33.2105 30.5063 33.0005 31.233 33.0005C31.7684 33.0005 32.6864 33.2737 34.8283 35.3814C37.2761 37.8794 37.6797 39 39.0565 39H42.6667C43.6982 39 44.214 38.4737 43.9164 37.435C43.5909 36.3998 42.4222 34.8979 40.8714 33.1175C40.0299 32.1027 38.7678 31.0099 38.3852 30.4633C37.8498 29.7609 38.0028 29.4485 38.3852 28.8241C38.3852 28.8241 42.7838 22.501 43.2428 20.3543Z" fill="white"/>
</svg>
