<svg width="56" height="56" viewBox="0 0 56 56" fill="none" xmlns="http://www.w3.org/2000/svg">
<circle cx="28" cy="28" r="28" fill="white"/>
<circle cx="28" cy="28" r="28" fill="url(#paint0_radial)"/>
<circle cx="28" cy="28" r="28" fill="url(#paint1_radial)"/>
<path d="M35.617 11H20.3826C15.209 11 11 15.2092 11 20.3828V35.6172C11 40.791 15.209 45 20.3826 45H35.617C40.791 45 45 40.7908 45 35.6172V20.3828C45.0002 15.2092 40.791 11 35.617 11ZM41.9836 35.6172C41.9836 39.1276 39.1276 41.9834 35.6172 41.9834H20.3826C16.8724 41.9836 14.0166 39.1276 14.0166 35.6172V20.3828C14.0166 16.8726 16.8724 14.0166 20.3826 14.0166H35.617C39.1274 14.0166 41.9834 16.8726 41.9834 20.3828L41.9836 35.6172Z" fill="white"/>
<path d="M28 19.2394C23.1691 19.2394 19.239 23.1695 19.239 28.0003C19.239 32.831 23.1691 36.7609 28 36.7609C32.8308 36.7609 36.7609 32.831 36.7609 28.0003C36.7609 23.1695 32.8308 19.2394 28 19.2394ZM28 33.744C24.8327 33.744 22.2557 31.1674 22.2557 28.0001C22.2557 24.8327 24.8325 22.2559 28 22.2559C31.1674 22.2559 33.7443 24.8327 33.7443 28.0001C33.7443 31.1674 31.1672 33.744 28 33.744Z" fill="white"/>
<path d="M37.1283 16.6815C36.5471 16.6815 35.9762 16.9168 35.5657 17.3291C35.1533 17.7394 34.9161 18.3105 34.9161 18.8938C34.9161 19.4752 35.1535 20.0461 35.5657 20.4584C35.976 20.8686 36.5471 21.106 37.1283 21.106C37.7116 21.106 38.2807 20.8686 38.693 20.4584C39.1053 20.0461 39.3406 19.475 39.3406 18.8938C39.3406 18.3105 39.1053 17.7394 38.693 17.3291C38.2827 16.9168 37.7116 16.6815 37.1283 16.6815Z" fill="white"/>
<defs>
<radialGradient id="paint0_radial" cx="0" cy="0" r="1" gradientUnits="userSpaceOnUse" gradientTransform="translate(14.8751 60.3132) rotate(-90) scale(55.5001 51.6195)">
<stop stop-color="#FFDD55"/>
<stop offset="0.1" stop-color="#FFDD55"/>
<stop offset="0.5" stop-color="#FF543E"/>
<stop offset="1" stop-color="#C837AB"/>
</radialGradient>
<radialGradient id="paint1_radial" cx="0" cy="0" r="1" gradientUnits="userSpaceOnUse" gradientTransform="translate(-9.3803 4.03415) rotate(78.6806) scale(24.8088 102.263)">
<stop stop-color="#3771C8"/>
<stop offset="0.128" stop-color="#3771C8"/>
<stop offset="1" stop-color="#6600FF" stop-opacity="0"/>
</radialGradient>
</defs>
</svg>
