<svg width="56" height="56" viewBox="0 0 56 56" fill="none" xmlns="http://www.w3.org/2000/svg">
<circle cx="28" cy="28" r="28" fill="#F58320"/>
<path fill-rule="evenodd" clip-rule="evenodd" d="M30.4167 29.7535L28.5851 31.5851C28.0318 32.1383 27.1348 32.1383 26.5816 31.5851L24.75 29.7535L16.8323 37.6712L38.33 37.6668L30.4167 29.7535ZM40.3334 19.8367L32.4201 27.75L40.333 35.6628L40.3334 19.8367ZM22.7465 27.75L14.8337 19.8372L14.8333 35.6633L22.7465 27.75ZM27.5833 28.6267L38.3408 17.8288L16.8302 17.8332L27.5833 28.6267ZM14.8346 15H40.3321C41.8976 15 43.1667 16.2645 43.1667 17.8264V37.6736C43.1667 39.2346 41.8966 40.5 40.3321 40.5H14.8346C13.2691 40.5 12 39.2355 12 37.6736V17.8264C12 16.2654 13.2701 15 14.8346 15Z" fill="white"/>
</svg>
