<svg width="28" height="28" viewBox="0 0 28 28" fill="none" xmlns="http://www.w3.org/2000/svg">
<path fill-rule="evenodd" clip-rule="evenodd" d="M11.5 2C6.2533 2 2 6.2533 2 11.5C2 16.7467 6.2533 21 11.5 21C16.7467 21 21 16.7467 21 11.5C21 6.2533 16.7467 2 11.5 2ZM0 11.5C0 5.14873 5.14873 0 11.5 0C17.8513 0 23 5.14873 23 11.5C23 14.3156 21.9881 16.8949 20.3082 18.894L27.2071 25.7929C27.5976 26.1834 27.5976 26.8166 27.2071 27.2071C26.8166 27.5976 26.1834 27.5976 25.7929 27.2071L18.894 20.3082C16.8949 21.9881 14.3156 23 11.5 23C5.14873 23 0 17.8513 0 11.5Z" fill="#272727"/>
</svg>
