<svg width="28" height="28" viewBox="0 0 28 28" fill="none" xmlns="http://www.w3.org/2000/svg">
<rect x="1" y="1" width="26" height="26" rx="5" stroke="#F58320" stroke-width="2"/>
<path d="M23.8249 18.2269L23.5454 17.7802C22.999 16.9073 22.3377 16.1069 21.5799 15.4012L20.6451 14.5306C20.5563 14.4478 20.543 14.3164 20.6135 14.2182L21.8898 12.4393C22.0739 12.1828 22.2437 11.9126 22.3947 11.6364L23.4854 9.64037C23.6755 9.29255 23.6653 8.88281 23.4581 8.54436C23.2511 8.20598 22.8866 8.00361 22.4834 8.00318L20.1226 8.00054C20.1221 8.00054 20.1216 8.00054 20.1211 8.00054C19.6265 8.00054 19.1786 8.28665 18.9799 8.72965L18.7298 9.28689C18.0919 10.7086 17.2211 12.0049 16.1408 13.1415V9.07337C16.1408 8.48153 15.6484 8 15.0434 8H11.6998C11.1508 8 10.7042 8.43685 10.7042 8.97383C10.7042 9.17889 10.7688 9.37533 10.891 9.54175L11.125 9.86052C11.3544 10.1729 11.4756 10.5414 11.4756 10.9261V13.8987C11.0633 13.4303 10.5612 12.7943 10.1362 12.063C9.48545 10.9432 9.01897 9.6373 8.79884 8.95853C8.61288 8.38522 8.07487 8 7.46 8H5.06896C4.73152 8 4.42119 8.1509 4.21732 8.414C4.01361 8.67716 3.9492 9.01032 4.04072 9.32812L4.48676 10.8764C4.76011 11.8255 5.1359 12.7495 5.60365 13.6226C5.74482 13.8862 6.07774 13.988 6.3474 13.8499C6.61701 13.7118 6.72099 13.386 6.57976 13.1224C6.1475 12.3154 5.8002 11.4614 5.54751 10.5842L5.11359 9.07784H7.46006C7.59246 9.07784 7.70834 9.16084 7.7484 9.28441C7.98164 10.0035 8.47755 11.39 9.17827 12.5956C9.75319 13.5848 10.4507 14.409 10.9347 14.9261C11.1999 15.2094 11.6078 15.3027 11.974 15.1635C12.3407 15.0241 12.5776 14.6855 12.5776 14.3009V10.9261C12.5776 10.3145 12.3848 9.72859 12.0202 9.23187L11.9071 9.07784H15.0387V13.3997C15.0387 13.7159 15.2011 14.0067 15.473 14.1776C15.7449 14.3486 16.0827 14.3723 16.3768 14.2409L16.604 14.1395C16.7087 14.0928 16.8016 14.0277 16.8805 13.9458C18.0763 12.7038 19.038 11.282 19.739 9.71997L19.989 9.16272C20.012 9.11142 20.0639 9.07833 20.1211 9.07833H20.1213L22.4821 9.08097C22.4901 9.08097 22.5023 9.08102 22.5127 9.09794C22.5231 9.11492 22.5173 9.12538 22.5135 9.13233L21.4229 11.1283C21.2928 11.3663 21.1464 11.5991 20.9878 11.8201L19.7114 13.599C19.3251 14.1375 19.3982 14.8576 19.8852 15.3112L20.82 16.1817C21.5084 16.8229 22.1092 17.5501 22.6056 18.343L22.8851 18.7897C22.8919 18.8005 22.9123 18.8332 22.8869 18.8776C22.8614 18.9221 22.8222 18.9221 22.8093 18.9221H20.7712C20.5093 18.9221 20.2544 18.8168 20.0719 18.6332L18.0339 16.5837C17.5536 16.1007 16.9442 15.769 16.2713 15.6246C15.9698 15.5597 15.6585 15.6311 15.4177 15.8206C15.1769 16.01 15.0388 16.2919 15.0388 16.5941V18.6078C15.0388 18.7811 14.8946 18.9222 14.7174 18.9222C13.1381 18.9222 11.5775 18.4053 10.323 17.4669C9.8176 17.0889 9.33558 16.6719 8.89031 16.2277C8.67729 16.0153 8.32844 16.0118 8.11107 16.2202C7.89375 16.4286 7.89034 16.7698 8.10336 16.9823C8.5851 17.4629 9.10663 17.914 9.65345 18.323C11.099 19.4044 12.8974 20 14.7173 20C15.5022 20 16.1408 19.3754 16.1408 18.6078V16.7025C16.5603 16.8121 16.9398 17.0294 17.2439 17.3352L19.2818 19.3847C19.6706 19.7757 20.2135 20 20.7712 20H22.8093C23.2398 20 23.6379 19.7718 23.8483 19.4045C24.0586 19.0372 24.0497 18.586 23.8249 18.2269Z" fill="#F58320" stroke="#F58320" stroke-width="0.5"/>
</svg>
