<svg width="176" height="44" viewBox="0 0 176 44" fill="none" xmlns="http://www.w3.org/2000/svg">
<g clip-path="url(#clip0)">
<path d="M8.78379 17.5645H12.822L21.871 36.4684H17.8918L16.3885 33.283H5.45302L4.00871 36.4684H0L8.78379 17.5645ZM14.8853 30.1274L10.8471 21.5536L6.89734 30.1274H14.8853Z" fill="black"/>
<path d="M24.7891 17.5645H31.6569C33.6613 17.5645 35.4004 17.7728 36.8741 18.2194C38.3479 18.6659 39.5859 19.2911 40.5586 20.0949C41.5313 20.8987 42.2387 21.8811 42.7398 23.0421C43.2114 24.2032 43.4473 25.513 43.4473 26.942C43.4473 28.3114 43.2114 29.5915 42.7398 30.7525C42.2682 31.9136 41.5608 32.9258 40.5881 33.7891C39.6154 34.6524 38.4069 35.3073 36.9331 35.7837C35.4593 36.26 33.7202 36.4981 31.7159 36.4981H24.8185V17.5645H24.7891ZM32.5707 33.1639C33.6908 33.1639 34.6929 33.0151 35.5477 32.7174C36.4025 32.4197 37.11 32.0029 37.6995 31.467C38.2595 30.9312 38.7016 30.2762 38.9964 29.5022C39.2912 28.7282 39.4385 27.8946 39.4385 26.942C39.4385 26.0191 39.2912 25.1856 38.9964 24.4413C38.7016 23.6971 38.289 23.0719 37.6995 22.536C37.1394 22.0299 36.4025 21.6132 35.5477 21.3452C34.6929 21.0773 33.6908 20.9285 32.5707 20.9285H28.562V33.1937H32.5707V33.1639Z" fill="black"/>
<path d="M47.2202 17.5645H54.0881C56.0924 17.5645 57.8315 17.7728 59.3053 18.2194C60.7791 18.6659 62.0171 19.2911 62.9898 20.0949C63.9625 20.8987 64.6699 21.8811 65.171 23.0421C65.6426 24.2032 65.8784 25.513 65.8784 26.942C65.8784 28.3114 65.6426 29.5915 65.171 30.7525C64.6994 31.9136 63.9919 32.9258 63.0192 33.7891C62.0465 34.6524 60.838 35.3073 59.3642 35.7837C57.8905 36.26 56.1514 36.4981 54.147 36.4981H47.2497V17.5645H47.2202ZM55.0313 33.1639C56.1514 33.1639 57.1536 33.0151 58.0084 32.7174C58.8632 32.4197 59.5706 32.0029 60.1601 31.467C60.7201 30.9312 61.1623 30.2762 61.457 29.5022C61.7518 28.7282 61.8992 27.8946 61.8992 26.942C61.8992 26.0191 61.7518 25.1856 61.457 24.4413C61.1623 23.6971 60.7496 23.0719 60.1601 22.536C59.6001 22.0299 58.8632 21.6132 58.0084 21.3452C57.1536 21.0773 56.1514 20.9285 55.0313 20.9285H51.0226V33.1937H55.0313V33.1639Z" fill="black"/>
<path d="M105.346 12.7121L100.335 11.938C100.542 5.92452 97.4173 0.804084 92.8191 0.0896049C88.2208 -0.624874 83.7111 3.30476 82.1194 9.1099L77.1085 8.33588L69.8574 38.8203L103.254 44.0003L105.346 12.7121ZM92.4064 2.73913C95.6193 3.24522 97.771 6.99623 97.7121 11.5213L84.7427 9.49691C86.0102 5.18027 89.1936 2.23304 92.4064 2.73913Z" fill="#D20B16"/>
<path d="M79.8497 30.7228L87.0713 27.2099C88.1619 26.674 89.0462 26.2275 89.7536 25.8107C90.461 25.3939 91.0211 25.0367 91.4337 24.6795C91.8464 24.352 92.1411 24.0245 92.318 23.7268C92.4948 23.4291 92.6127 23.1314 92.6717 22.8039C92.7306 22.4467 92.7012 22.0895 92.6127 21.7322C92.5243 21.4048 92.318 21.0773 92.0232 20.7796C91.7285 20.4819 91.3453 20.2437 90.8737 20.0353C90.4021 19.827 89.8125 19.6483 89.1051 19.559C88.1029 19.4102 87.0713 19.3804 86.0102 19.5293C84.9785 19.6483 83.8584 19.946 82.7384 20.4224L81.4414 17.2965C82.7089 16.7606 84.0648 16.3736 85.4796 16.195C86.8944 15.9866 88.3387 16.0164 89.842 16.2546C91.1389 16.4629 92.259 16.7904 93.1728 17.2667C94.0865 17.7431 94.8234 18.2789 95.354 18.9339C95.8846 19.559 96.2677 20.2735 96.4741 21.0475C96.6804 21.8215 96.7099 22.5956 96.592 23.3993C96.5035 24.0245 96.2972 24.5901 96.0025 25.126C95.7077 25.6619 95.2656 26.1977 94.6466 26.7038C94.0276 27.2397 93.2612 27.7755 92.259 28.3412C91.2863 28.9068 90.0483 29.532 88.604 30.2167L85.627 31.5861L95.7666 33.1639L95.2656 36.4981L79.3486 34.0272L79.8497 30.7228Z" fill="white"/>
<path d="M110.858 17.5645H120.851C122.059 17.5645 123.15 17.6835 124.034 17.9515C124.948 18.2194 125.685 18.5766 126.304 19.0232C126.893 19.4697 127.335 20.0354 127.63 20.6605C127.925 21.2857 128.072 21.9704 128.072 22.7147C128.072 23.9055 127.689 24.9772 126.952 25.8703C127.807 26.3764 128.455 27.0611 128.868 27.8649C129.281 28.6984 129.517 29.6213 129.517 30.6632C129.517 31.5563 129.369 32.3304 129.074 33.0448C128.78 33.7593 128.338 34.3547 127.748 34.8608C127.159 35.3669 126.392 35.7539 125.508 36.0218C124.594 36.2898 123.533 36.4386 122.295 36.4386H110.858V17.5645ZM122.324 24.8283C122.649 24.8283 122.973 24.8283 123.297 24.8581C123.828 24.352 124.093 23.7566 124.093 23.1017C124.093 22.417 123.828 21.8811 123.297 21.5239C122.767 21.1368 122 20.9582 120.969 20.9582H114.661V24.8283H122.324ZM122.383 33.1341C123.415 33.1341 124.181 32.9258 124.712 32.4792C125.243 32.0327 125.508 31.4075 125.508 30.6037C125.508 29.7999 125.243 29.1747 124.712 28.7282C124.181 28.2816 123.415 28.0435 122.383 28.0435H114.661V33.1341H122.383Z" fill="black"/>
<path d="M139.745 17.5645H143.783L152.832 36.4684H148.853L147.349 33.283H136.414L134.97 36.4684H130.961L139.745 17.5645ZM145.846 30.1274L141.779 21.5536L137.829 30.1274H145.846Z" fill="black"/>
<path d="M154.453 26.8531C154.453 25.5134 154.689 24.2928 155.19 23.1318C155.691 21.9708 156.399 20.9586 157.371 20.1251C158.314 19.2617 159.493 18.6068 160.879 18.1007C162.264 17.5946 163.856 17.3564 165.624 17.3564C166.273 17.3564 166.921 17.3862 167.57 17.4458C168.218 17.5053 168.867 17.6244 169.486 17.7732C170.134 17.9221 170.753 18.1007 171.343 18.3091C171.932 18.5175 172.522 18.7854 173.052 19.1129L171.313 22.0303C170.989 21.8517 170.606 21.6731 170.193 21.4945C169.781 21.3456 169.338 21.1968 168.867 21.1075C168.395 20.9884 167.894 20.9288 167.393 20.8693C166.892 20.8098 166.391 20.78 165.86 20.78C164.681 20.78 163.62 20.9288 162.706 21.2265C161.793 21.5242 160.997 21.941 160.348 22.5066C159.7 23.0425 159.228 23.6974 158.874 24.4715C158.55 25.2157 158.373 26.0493 158.373 26.9721C158.373 27.895 158.55 28.7583 158.904 29.5621C159.258 30.3361 159.759 31.0209 160.407 31.5865C161.056 32.1521 161.822 32.5987 162.765 32.8964C163.679 33.2238 164.711 33.3727 165.831 33.3727C166.745 33.3727 167.57 33.2834 168.307 33.075C169.044 32.8666 169.722 32.5689 170.282 32.2117C170.842 31.8544 171.284 31.3781 171.637 30.8422C171.991 30.3064 172.227 29.711 172.345 29.0263H165.801V25.8111H175.764C175.97 26.7935 176.029 27.7164 175.941 28.6393C175.853 29.5621 175.646 30.4255 175.322 31.2292C174.968 32.033 174.526 32.7773 173.937 33.462C173.347 34.1467 172.64 34.7123 171.814 35.2184C170.989 35.6947 170.046 36.0817 169.014 36.3497C167.983 36.6176 166.833 36.7665 165.565 36.7665C163.826 36.7665 162.264 36.4985 160.879 35.9924C159.493 35.4863 158.344 34.7719 157.371 33.8788C156.399 32.9857 155.691 31.9437 155.161 30.7232C154.689 29.5026 154.453 28.2225 154.453 26.8531Z" fill="black"/>
</g>
<defs>
<clipPath id="clip0">
<rect width="176" height="44" fill="white"/>
</clipPath>
</defs>
</svg>
